<?xml version="1.0" encoding="UTF-8" standalone="no"?><!DOCTYPE svg PUBLIC "-//W3C//DTD SVG 1.1//EN" "http://www.w3.org/Graphics/SVG/1.1/DTD/svg11.dtd"><svg width="100%" height="100%" viewBox="0 0 7680 4320" version="1.1" xmlns="http://www.w3.org/2000/svg" xmlns:xlink="http://www.w3.org/1999/xlink" xml:space="preserve" xmlns:serif="http://www.serif.com/" style="fill-rule:evenodd;clip-rule:evenodd;stroke-linecap:round;stroke-linejoin:round;stroke-miterlimit:1.5;"><path d="M3979.04,2152.14c0,0 -60.925,28.64 -92.211,37.59c-31.286,8.95 -116.91,17.9 -138.316,28.64c-21.406,10.74 -141.61,60.86 -176.189,64.44c-34.579,3.58 -135.024,25.06 -153.136,41.17c-18.113,16.109 -13.173,25.059 -13.173,25.059l18.112,14.32c0,0 10.43,4.907 1.106,31.935c-9.324,27.028 -20.029,63.066 -36.259,69.823c-16.23,6.757 -11.741,6.381 -17.266,4.129c-5.525,-2.252 -2.417,2.628 -2.417,2.628c0,0 -20.029,22.148 -26.245,13.889c-6.216,-8.259 -3.108,7.132 18.993,-18.394l-3.453,-3.379l-1.727,-5.63l5.525,-9.01l8.978,-7.132l18.303,-22.899l-5.871,-8.259l-8.978,9.01c0,0 -23.137,35.662 -32.461,19.895l-11.395,3.754l5.18,-10.511c0,0 6.906,-5.63 15.539,-8.634l0,-6.381c0,0 -1.381,-4.88 6.216,-8.259c7.597,-3.378 16.23,-11.637 16.23,-11.637l-10.014,-10.511c0,0 -26.59,4.88 -22.101,-13.889c4.489,-18.77 1.036,-4.88 1.036,-4.88c0,0 -18.753,-4.505 -30.734,4.504c0,0 11.156,-22.898 40.508,-19.52l36.605,17.643l5.87,-1.876l0.691,-6.382l-58.36,-50.302c0,0 -29.007,-1.502 -23.482,-20.647c0,0 -1.381,-7.883 -6.561,-12.388c-5.18,-4.504 -0.038,-6.006 1.689,-14.265c1.727,-8.258 -68.681,9.385 -68.681,9.385c0,0 -112.23,33.41 -120.173,25.902c-7.942,-7.508 45.928,-30.782 45.928,-30.782l-73.554,33.41l-136.747,57.435c0,0 -14.849,8.258 -4.835,-5.256c10.015,-13.514 46.619,-37.164 46.619,-37.164c0,0 -81.496,26.278 -99.798,17.268c-18.303,-9.009 -13.813,-6.006 -3.108,-15.015c10.705,-9.01 11.741,-9.01 11.741,-9.01l-56.288,1.127l2.072,-7.133l-12.777,-3.378c0,0 23.827,-19.521 20.029,-19.521c-3.799,0 -14.849,-9.009 -14.849,-9.009c0,0 40.057,-19.896 45.237,-24.4c5.18,-4.505 23.482,-7.133 -1.726,-6.382c-25.209,0.751 -25.209,0 -25.209,0l0,-10.511l39.021,-25.902l2.072,-18.394l62.849,-22.899l131.913,-9.384l-134.33,0c0,0 -61.122,-5.631 4.489,-16.893c65.611,-11.262 85.295,-7.508 85.295,-7.508l46.618,0c0,0 -71.136,-6.381 -83.913,-6.381c-12.777,0 66.302,-8.259 66.302,-8.259c0,0 -74.245,-12.388 -24.518,-24.776c49.726,-12.388 67.338,-12.012 68.719,-11.261c1.381,0.75 34.878,13.514 43.856,16.517c8.978,3.003 110.503,29.28 142.964,-10.887l13.122,-8.634c0,0 -88.403,4.13 -88.403,-22.523l0,-31.157l-7.942,-13.139c0,0 -16.921,-35.287 25.554,-69.822c0,0 -27.971,-22.149 -9.324,-33.41c18.647,-11.262 -14.504,4.88 -5.18,-43.545c0,0 -12.777,-0.751 -7.597,-12.388c5.18,-11.637 -37.985,13.138 -10.705,-9.76l6.907,-13.515l54.215,-17.267l-73.554,18.394c0,0 -32.943,-24.776 -58.704,-30.032c-25.761,-5.255 -203.948,-37.539 -179.43,-54.431c24.518,-16.893 54.561,-10.136 109.122,-10.886c54.561,-0.751 74.59,-0.751 74.59,-0.751c0,0 -245.179,0 -245.87,-1.502c-0.691,-1.501 -94.618,-0.375 -39.712,-8.634c54.906,-8.258 181.64,-12.388 181.64,-12.388l90.129,-2.252l-216.172,-9.76c0,0 -175.769,-30.031 -79.77,-29.656c96,0.376 271.078,-12.012 273.841,-12.388c2.763,-0.375 -118.791,-0.751 -175.424,-0.751c-56.633,0 -88.402,-43.92 -60.086,-43.92c28.317,0 259.683,-14.64 259.683,-14.64l264.396,5.699c0,0 -315.646,-53.962 -307.553,-53.962c8.094,0 265.467,-12.318 323.74,23.462c0,0 -176.978,-79.184 -132.733,-75.078c44.244,4.105 171.582,44.577 196.402,57.481c24.82,12.904 41.007,14.664 41.007,14.664l18.885,0.586c0,0 48.021,-14.077 128.417,66.28c80.395,80.357 81.474,72.145 74.999,106.752c-6.475,34.606 -22.122,112.03 -22.122,151.329c0,39.298 4.317,85.636 4.317,85.636c0,0 32.462,25.221 152.697,21.702c0,0 53.868,5.865 80.306,26.395c0,0 7.015,-4.106 15.648,4.105c0,0 17.805,2.347 22.122,4.106c0,0 77.698,6.212 113.848,66.089c0,0 -79.316,-34.556 -135.431,-29.277c0,0 122.482,35.779 127.338,48.097c0,0 -46.403,-1.76 -69.604,-8.212c0,0 -37.23,11.731 -41.547,20.529c-4.316,8.798 -21.512,17.791 -21.512,17.791Z" style="stroke:#000;stroke-width:2px;"/><ellipse cx="3928.03" cy="2041.78" rx="8.035" ry="8.441" style="fill:#fff;"/></svg>